<svg width="501" height="800" viewBox="0 0 501 800" fill="none" xmlns="http://www.w3.org/2000/svg">
<path d="M132.406 798.95C140.22 803.104 148.463 794.108 143.679 786.662C117.71 746.245 93.1192 678.235 132.298 590.646C197.634 444.585 237.391 368.935 237.391 368.935C237.391 368.935 258.538 457.217 315.861 535.713C371.031 611.259 401.228 706.273 352.546 785.424C347.977 792.853 356.033 801.618 363.797 797.645C424.058 766.819 491.648 704.985 499.274 581.936C502.086 544.336 497.869 491.696 476.783 425.268C449.67 341.077 416.339 301.792 397.054 284.922C391.286 279.875 382.314 284.348 382.788 291.997C388.407 382.839 354.232 405.892 334.78 353.94C327.011 333.19 322.48 297.299 322.48 253.592C322.48 180.827 301.369 105.923 254.827 45.0545C242.723 29.2257 228.561 14.4349 212.313 1.82176C206.43 -2.74557 197.904 1.84529 198.442 9.27275C202.016 58.6009 198.778 199.972 74.7506 368.867C-37.7058 525.535 5.87071 645.856 21.3335 678.444C50.8969 740.874 92.1336 777.537 132.406 798.95Z" fill="black"/>
</svg>
